<?xml version="1.0" standalone="no"?>
<!DOCTYPE svg PUBLIC "-//W3C//DTD SVG 20010904//EN"
 "http://www.w3.org/TR/2001/REC-SVG-20010904/DTD/svg10.dtd">
<svg version="1.0" xmlns="http://www.w3.org/2000/svg"
 width="62.000000pt" height="91.000000pt" viewBox="0 0 62.000000 91.000000"
 preserveAspectRatio="xMidYMid meet">

<g transform="translate(0.000000,91.000000) scale(0.100000,-0.100000)"
fill="#000000" stroke="none">
<path d="M295 788 c-12 -46 -20 -133 -24 -233 l-6 -160 -22 47 c-12 26 -43 80
-69 120 -44 69 -47 72 -57 50 -15 -33 3 -94 69 -232 51 -108 55 -122 61 -213
3 -53 9 -94 13 -92 4 3 19 42 33 87 22 70 40 101 111 194 46 61 94 130 105
152 21 41 29 107 12 100 -5 -1 -48 -49 -96 -106 -48 -57 -88 -102 -90 -100 -1
2 1 30 6 63 18 121 6 362 -20 388 -5 5 -17 -24 -26 -65z"/>
</g>
</svg>
