<?xml version="1.0" standalone="no"?>
<!DOCTYPE svg PUBLIC "-//W3C//DTD SVG 20010904//EN"
 "http://www.w3.org/TR/2001/REC-SVG-20010904/DTD/svg10.dtd">
<svg version="1.0" xmlns="http://www.w3.org/2000/svg"
 width="243.000000pt" height="917.000000pt" viewBox="0 0 243.000000 917.000000"
 preserveAspectRatio="xMidYMid meet">

<g transform="translate(0.000000,917.000000) scale(0.100000,-0.100000)"
fill="#000000" stroke="none">
<path d="M2105 9048 c-12 -46 -20 -133 -24 -233 l-6 -160 -22 47 c-12 26 -43
80 -69 120 -44 69 -47 72 -57 50 -15 -33 3 -94 69 -232 51 -108 55 -122 61
-213 3 -53 9 -94 13 -92 4 3 19 42 33 87 22 70 40 101 111 194 46 61 94 130
105 152 21 41 29 107 12 100 -5 -1 -48 -49 -96 -106 -48 -57 -88 -102 -90
-100 -1 2 1 30 6 63 18 121 6 362 -20 388 -5 5 -17 -24 -26 -65z"/>
<path d="M1472 8164 c-26 -29 -74 -112 -120 -204 -74 -151 -76 -154 -83 -120
-21 100 -39 208 -39 233 0 41 -15 33 -39 -22 -28 -66 -27 -106 10 -257 33
-134 33 -145 3 -286 -11 -50 13 -30 54 45 43 77 70 106 172 183 87 65 160 134
160 150 0 8 -3 14 -7 14 -15 0 -148 -72 -181 -97 -18 -14 -36 -23 -38 -20 -3
3 22 59 55 126 59 116 106 254 99 288 -2 13 -15 4 -46 -33z"/>
<path d="M1585 7010 c-3 -65 -5 -123 -2 -127 2 -4 7 -53 11 -108 l6 -100 -22
30 c-87 115 -160 187 -175 172 -12 -12 28 -95 89 -183 33 -49 74 -107 89 -130
21 -31 30 -60 38 -124 12 -96 27 -122 36 -64 16 106 38 171 78 238 24 39 56
101 70 138 26 65 36 138 18 138 -8 0 -62 -80 -114 -170 -17 -28 -28 -39 -31
-30 -2 8 -7 69 -10 135 -3 66 -12 145 -21 175 -30 106 -38 130 -45 130 -4 0
-11 -54 -15 -120z"/>
<path d="M1252 6125 c-31 -111 -43 -180 -49 -287 -3 -65 -9 -118 -13 -118 -7
0 -28 32 -117 173 -35 55 -46 48 -41 -25 4 -53 12 -74 48 -133 24 -38 56 -86
71 -105 42 -56 58 -93 70 -169 18 -106 32 -94 43 37 7 73 28 126 84 209 21 32
48 76 60 98 24 49 39 115 24 115 -5 0 -37 -35 -71 -77 -33 -43 -68 -87 -76
-98 -15 -19 -16 -17 -10 28 9 71 7 327 -3 362 l-9 30 -11 -40z"/>
<path d="M1624 5098 c4 -13 13 -57 22 -98 8 -41 35 -126 60 -188 25 -62 43
-116 40 -119 -3 -4 -19 5 -34 19 -28 27 -114 83 -169 112 -27 13 -33 14 -33 3
0 -26 80 -115 153 -170 94 -71 149 -131 187 -206 16 -34 33 -61 36 -61 3 0 3
40 -1 89 -6 78 -4 100 20 187 30 111 41 220 27 279 l-9 40 -15 -36 c-19 -44
-68 -212 -68 -233 0 -40 -20 -8 -45 72 -31 100 -82 215 -126 284 -33 51 -56
64 -45 26z"/>
<path d="M1541 4095 c-22 -53 -51 -207 -57 -307 -3 -54 -9 -98 -12 -98 -4 0
-37 48 -73 106 -36 59 -69 106 -75 106 -17 -2 -15 -53 5 -112 10 -33 47 -99
81 -148 60 -89 89 -171 90 -254 0 -16 5 -28 10 -28 6 0 10 1 10 3 0 24 32 172
41 188 6 12 42 69 80 126 62 94 89 152 89 192 0 21 -62 -41 -122 -122 -28 -37
-52 -66 -53 -65 -1 2 2 57 7 123 6 70 6 162 0 220 -8 94 -9 98 -21 70z"/>
<path d="M1826 3007 c-9 -33 -7 -136 3 -219 5 -40 12 -95 15 -123 l6 -50 -72
76 c-75 78 -138 122 -138 96 0 -19 54 -101 123 -187 70 -87 103 -153 118 -236
6 -32 15 -66 19 -74 10 -17 13 -6 28 108 8 59 20 90 56 153 26 44 55 102 66
129 23 59 38 160 23 160 -6 0 -39 -49 -74 -110 -35 -60 -67 -109 -71 -110 -5
0 -8 21 -8 48 0 101 -54 341 -80 357 -4 3 -10 -5 -14 -18z"/>
<path d="M1458 2063 c-31 -36 -67 -114 -107 -232 -23 -66 -41 -127 -41 -136 0
-8 -4 -15 -10 -15 -5 0 -10 7 -10 16 0 9 -17 71 -37 136 -36 118 -37 119 -51
92 -21 -40 -10 -148 27 -268 26 -81 31 -115 31 -194 0 -82 2 -94 14 -82 7 8
24 46 36 84 21 64 29 75 132 175 60 58 118 123 129 144 11 20 17 37 14 37 -13
0 -116 -71 -155 -106 -22 -20 -43 -35 -45 -32 -3 2 6 33 20 69 38 95 63 186
73 262 9 70 5 79 -20 50z"/>
<path d="M1277 948 c-29 -35 -107 -149 -177 -260 -23 -38 -45 -68 -49 -68 -3
0 -6 33 -7 73 -1 96 -14 207 -24 207 -19 0 -33 -77 -50 -266 -8 -97 -15 -125
-50 -209 -23 -53 -39 -99 -36 -102 3 -3 35 22 71 56 36 33 70 61 75 61 5 0 60
25 122 55 77 37 131 71 168 105 52 48 53 51 25 45 -16 -4 -77 -26 -134 -50
-58 -25 -106 -43 -107 -42 -1 1 31 51 71 110 55 82 81 132 104 204 18 52 31
99 29 104 -2 6 -16 -5 -31 -23z"/>
<path d="M484 794 c-60 -40 -108 -89 -201 -206 -47 -60 -87 -108 -90 -108 -2
0 -1 12 2 28 11 60 18 272 9 272 -15 0 -52 -83 -68 -152 -8 -35 -17 -105 -21
-157 -5 -61 -17 -124 -36 -178 -35 -105 -20 -108 54 -11 29 37 126 93 242 139
94 37 180 98 163 114 -5 5 -172 -41 -212 -59 -22 -9 -41 -14 -44 -12 -2 3 32
47 77 98 73 84 179 244 168 254 -2 2 -21 -8 -43 -22z"/>
</g>
</svg>
