<?xml version="1.0" standalone="no"?>
<!DOCTYPE svg PUBLIC "-//W3C//DTD SVG 20010904//EN"
 "http://www.w3.org/TR/2001/REC-SVG-20010904/DTD/svg10.dtd">
<svg version="1.0" xmlns="http://www.w3.org/2000/svg"
 width="82.000000pt" height="79.000000pt" viewBox="0 0 82.000000 79.000000"
 preserveAspectRatio="xMidYMid meet">

<g transform="translate(0.000000,79.000000) scale(0.100000,-0.100000)"
fill="#000000" stroke="none">
<path d="M421 639 c-40 -43 -39 -141 0 -180 28 -28 76 -22 101 12 26 35 27
107 2 150 -25 43 -72 51 -103 18z"/>
<path d="M226 634 c-34 -34 -33 -126 2 -173 23 -32 76 -40 102 -16 36 33 31
117 -12 178 -22 31 -67 37 -92 11z"/>
<path d="M613 489 c-28 -10 -63 -65 -63 -97 0 -38 30 -92 55 -98 32 -8 60 9
79 50 20 43 20 85 0 114 -21 31 -45 41 -71 31z"/>
<path d="M98 433 c-33 -39 -25 -107 19 -155 39 -44 107 -7 105 57 -3 87 -81
148 -124 98z"/>
<path d="M345 376 c-86 -38 -148 -157 -131 -250 10 -52 47 -63 122 -37 69 25
104 26 161 6 47 -16 86 -8 97 20 16 42 6 111 -23 156 -68 105 -145 141 -226
105z"/>
</g>
</svg>
