<?xml version="1.0" standalone="no"?>
<!DOCTYPE svg PUBLIC "-//W3C//DTD SVG 20010904//EN"
 "http://www.w3.org/TR/2001/REC-SVG-20010904/DTD/svg10.dtd">
<svg version="1.0" xmlns="http://www.w3.org/2000/svg"
 width="197.000000pt" height="755.000000pt" viewBox="0 0 197.000000 755.000000"
 preserveAspectRatio="xMidYMid meet">

<g transform="translate(0.000000,755.000000) scale(0.100000,-0.100000)"
fill="#000000" stroke="none">
<path d="M421 7399 c-40 -43 -39 -141 0 -180 28 -28 76 -22 101 12 26 35 27
107 2 150 -25 43 -72 51 -103 18z"/>
<path d="M226 7394 c-34 -34 -33 -126 2 -173 23 -32 76 -40 102 -16 36 33 31
117 -12 178 -22 31 -67 37 -92 11z"/>
<path d="M613 7249 c-28 -10 -63 -65 -63 -97 0 -38 30 -92 55 -98 32 -8 60 9
79 50 20 43 20 85 0 114 -21 31 -45 41 -71 31z"/>
<path d="M98 7193 c-33 -39 -25 -107 19 -155 39 -44 107 -7 105 57 -3 87 -81
148 -124 98z"/>
<path d="M345 7136 c-86 -38 -148 -157 -131 -250 10 -52 47 -63 122 -37 69 25
104 26 161 6 47 -16 86 -8 97 20 16 42 6 111 -23 156 -68 105 -145 141 -226
105z"/>
<path d="M1401 6647 c-24 -29 -42 -91 -37 -122 11 -55 66 -86 106 -58 51 36
61 127 19 172 -22 24 -71 28 -88 8z"/>
<path d="M1218 6630 c-10 -6 -22 -29 -28 -51 -18 -68 17 -139 69 -139 32 0 44
8 60 37 41 79 -34 193 -101 153z"/>
<path d="M1545 6487 c-37 -31 -44 -93 -15 -129 29 -37 52 -35 89 7 72 82 6
191 -74 122z"/>
<path d="M1092 6448 c-31 -40 -25 -103 15 -142 31 -31 47 -32 73 -6 28 28 27
98 -1 134 -22 28 -69 36 -87 14z"/>
<path d="M1315 6388 c-37 -20 -96 -83 -111 -117 -18 -44 -18 -101 2 -129 19
-28 53 -28 123 -1 l54 20 59 -22 c47 -17 64 -20 83 -11 30 14 42 69 27 121
-14 44 -73 116 -113 136 -33 18 -95 19 -124 3z"/>
<path d="M825 5717 c-28 -24 -43 -85 -31 -131 9 -35 49 -60 82 -52 54 14 73
132 29 180 -29 32 -46 33 -80 3z"/>
<path d="M1011 5683 c-46 -37 -57 -140 -19 -165 67 -42 149 63 114 147 -12 29
-20 35 -44 35 -17 0 -39 -8 -51 -17z"/>
<path d="M662 5597 c-39 -47 -34 -113 13 -157 21 -20 28 -22 50 -12 70 32 51
182 -24 182 -16 0 -33 -6 -39 -13z"/>
<path d="M1099 5489 c-38 -41 -40 -95 -4 -129 21 -20 30 -22 52 -14 15 5 38
24 50 43 63 93 -23 180 -98 100z"/>
<path d="M872 5479 c-83 -17 -162 -104 -162 -179 0 -55 35 -73 124 -64 57 6
68 4 109 -20 56 -33 96 -32 114 4 43 86 -34 246 -127 262 -14 2 -40 1 -58 -3z"/>
<path d="M1602 4853 c-21 -8 -42 -60 -42 -105 0 -124 126 -115 137 9 7 74 -37
119 -95 96z"/>
<path d="M1410 4820 c-39 -39 -38 -114 2 -157 26 -28 62 -29 88 -3 31 31 28
118 -5 154 -29 31 -58 33 -85 6z"/>
<path d="M1729 4679 c-35 -38 -38 -84 -8 -123 25 -32 49 -33 76 -3 45 49 55
96 27 135 -22 32 -60 28 -95 -9z"/>
<path d="M1280 4640 c-29 -29 -26 -81 6 -119 30 -36 56 -39 84 -11 29 29 27
90 -5 124 -29 31 -58 33 -85 6z"/>
<path d="M1505 4594 c-94 -48 -154 -163 -124 -235 16 -41 51 -47 121 -21 51
18 63 19 110 8 65 -15 99 -8 115 24 19 38 16 71 -13 129 -46 91 -137 133 -209
95z"/>
<path d="M1001 4021 c-11 -11 -25 -38 -32 -59 -10 -36 -9 -44 12 -81 20 -36
27 -41 49 -36 32 7 57 37 71 85 9 31 8 43 -6 74 -14 29 -23 36 -46 36 -16 0
-38 -9 -48 -19z"/>
<path d="M1175 3958 c-56 -44 -67 -123 -20 -148 74 -39 155 90 95 150 -26 26
-41 25 -75 -2z"/>
<path d="M857 3933 c-21 -5 -47 -53 -47 -86 0 -34 36 -77 65 -77 54 0 78 107
35 150 -21 21 -22 21 -53 13z"/>
<path d="M998 3790 c-80 -24 -168 -110 -168 -164 0 -48 21 -61 94 -59 63 2
112 -13 136 -42 20 -25 67 -46 85 -39 9 4 22 19 30 35 40 76 -3 214 -80 256
-43 24 -55 26 -97 13z"/>
<path d="M1247 3783 c-20 -5 -47 -52 -47 -82 0 -28 20 -69 37 -75 34 -14 113
55 113 98 0 52 -41 75 -103 59z"/>
<path d="M1625 3056 c-55 -55 -55 -143 -1 -168 33 -14 72 10 92 57 20 50 17
83 -11 110 -30 31 -49 31 -80 1z"/>
<path d="M1452 3053 c-19 -7 -42 -58 -42 -93 0 -85 68 -121 117 -62 27 31 30
80 8 121 -19 37 -47 49 -83 34z"/>
<path d="M1754 2906 c-26 -26 -34 -43 -34 -69 0 -49 27 -81 63 -72 65 17 100
112 57 155 -28 28 -47 25 -86 -14z"/>
<path d="M1314 2882 c-40 -26 -41 -98 -2 -139 28 -30 52 -29 77 3 51 65 -11
179 -75 136z"/>
<path d="M1505 2821 c-61 -36 -115 -122 -115 -180 0 -15 7 -37 16 -50 15 -21
21 -23 68 -16 72 11 155 11 198 1 30 -7 40 -4 58 14 19 19 22 31 18 74 -11
129 -146 217 -243 157z"/>
<path d="M1034 2220 c-36 -14 -64 -59 -64 -104 0 -71 39 -103 92 -75 43 23 64
132 31 161 -28 24 -37 26 -59 18z"/>
<path d="M1201 2147 c-54 -27 -87 -110 -56 -140 9 -10 31 -17 50 -17 72 0 116
107 63 153 -24 20 -26 20 -57 4z"/>
<path d="M849 2090 c-29 -17 -42 -64 -29 -104 21 -64 76 -72 105 -16 40 78
-11 158 -76 120z"/>
<path d="M1248 1950 c-34 -34 -39 -44 -33 -67 10 -40 24 -53 55 -53 65 0 119
85 86 135 -25 38 -61 32 -108 -15z"/>
<path d="M1003 1973 c-28 -5 -119 -87 -138 -124 -36 -68 12 -119 110 -117 37
0 56 -6 91 -31 82 -57 125 -33 132 74 9 137 -75 221 -195 198z"/>
<path d="M1392 1274 c-18 -8 -42 -59 -42 -91 0 -41 26 -73 59 -73 82 0 107
162 26 167 -17 1 -36 -1 -43 -3z"/>
<path d="M1572 1264 c-28 -19 -52 -65 -52 -99 0 -30 32 -65 61 -65 35 0 89 62
89 102 0 67 -48 97 -98 62z"/>
<path d="M1227 1132 c-10 -11 -17 -35 -17 -60 0 -32 6 -45 26 -61 37 -29 61
-26 79 9 21 40 19 93 -3 113 -24 22 -65 21 -85 -1z"/>
<path d="M1667 1110 c-56 -44 -53 -140 4 -140 64 0 117 85 85 135 -20 31 -54
32 -89 5z"/>
<path d="M1415 1052 c-53 -25 -121 -102 -129 -147 -13 -65 23 -94 91 -76 56
16 94 13 131 -9 43 -26 68 -25 97 5 19 18 25 35 25 67 -1 127 -111 209 -215
160z"/>
<path d="M682 624 c-45 -31 -69 -123 -40 -152 22 -22 65 -14 96 18 76 75 27
192 -56 134z"/>
<path d="M490 533 c-31 -29 -40 -68 -26 -110 15 -45 73 -35 106 19 25 42 25
59 -1 92 -26 33 -41 33 -79 -1z"/>
<path d="M826 529 c-57 -45 -74 -121 -32 -140 57 -26 136 33 136 100 0 20 -5
42 -12 49 -18 18 -62 14 -92 -9z"/>
<path d="M574 396 c-49 -15 -129 -69 -138 -91 -19 -51 15 -88 90 -100 38 -5
57 -17 99 -56 74 -70 115 -65 144 20 27 82 -1 184 -61 221 -38 23 -75 24 -134
6z"/>
<path d="M834 326 c-41 -41 -45 -78 -9 -102 33 -22 78 -10 110 28 70 83 -23
152 -101 74z"/>
</g>
</svg>
